<svg xmlns="http://www.w3.org/2000/svg" viewBox="0 0 1584 396" role="img" aria-label="NorthPoint Digital social banner">
  <defs>
    <linearGradient id="cyan" x1="0" y1="396" x2="800" y2="0"><stop stop-color="#06B6D4"/><stop offset="1" stop-color="#38D6F0"/></linearGradient>
    <radialGradient id="glow" cx="0.75" cy="0.62" r="0.7"><stop stop-color="rgba(0,210,255,.45)"/><stop offset="1" stop-color="rgba(0,210,255,0)"/></radialGradient>
  </defs>
  <rect width="1584" height="396" fill="#0A0F1A"/>
  <g opacity="0.18" stroke="#F0F4FA" stroke-width="1"><path d="M0 66H1584M0 132H1584M0 198H1584M0 264H1584M0 330H1584M132 0V396M264 0V396M396 0V396M528 0V396M660 0V396M792 0V396M924 0V396M1056 0V396M1188 0V396M1320 0V396M1452 0V396"/></g>
  <path d="M1000 250 C1110 170 1225 310 1355 210 S1510 100 1584 140" fill="none" stroke="#00D2FF" stroke-width="4" opacity=".8"/>
  <path d="M900 290 C1070 180 1210 340 1400 220 S1540 120 1640 165" fill="none" stroke="#38D6F0" stroke-width="2" opacity=".45"/>
  <circle cx="1250" cy="220" r="7" fill="#00D2FF" opacity=".9"/>
  <path d="M150 72 L235 300 L150 235 L65 300 Z" fill="url(#cyan)"/>
  <text x="320" y="165" font-family="Inter Tight, Inter, Arial, sans-serif" font-size="54" font-weight="700" fill="#F0F4FA" letter-spacing="-1.5">Websites. Local SEO.</text>
  <text x="320" y="230" font-family="Inter Tight, Inter, Arial, sans-serif" font-size="54" font-weight="700" fill="#F0F4FA" letter-spacing="-1.5">AI Discovery. Lead Tracking.</text>
</svg>