<svg xmlns="http://www.w3.org/2000/svg" viewBox="0 0 64 64" role="img" aria-label="North Atlas Studio mark">
  <!-- compass ring, open at top for the north arrow -->
  <path d="M41.4 21.1 A19 19 0 1 1 22.6 21.1" fill="none" stroke="#FFFFFF" stroke-width="4.6" stroke-linecap="round"/>
  <!-- globe grid, lower hemisphere -->
  <g stroke="#FFFFFF" stroke-width="1.9" fill="none" stroke-linecap="round">
    <path d="M15.6 43.5 H48.4"/>
    <path d="M19.8 50 H44.2"/>
    <path d="M32 40.5 V55.4"/>
    <path d="M24.5 41.5 C23 46 23.5 50.5 26.5 54.2"/>
    <path d="M39.5 41.5 C41 46 40.5 50.5 37.5 54.2"/>
  </g>
  <!-- location pin with navy halo -->
  <path d="M32 19.5 c-7.6 0-12.6 5.4-12.6 11.8 0 8.4 12.6 17.2 12.6 17.2 s12.6-8.8 12.6-17.2 C44.6 24.9 39.6 19.5 32 19.5 z" fill="#0B1D3A"/>
  <path d="M32 22 c-6.2 0-10.2 4.4-10.2 9.6 0 6.9 10.2 14.1 10.2 14.1 s10.2-7.2 10.2-14.1 C42.2 26.4 38.2 22 32 22 z" fill="#FFFFFF"/>
  <circle cx="32" cy="31.6" r="3.4" fill="#0B1D3A"/>
  <!-- north arrow -->
  <path d="M32 2.6 L39.4 19.2 L32 15.2 L24.6 19.2 Z" fill="#2563EB"/>
</svg>
