<svg xmlns="http://www.w3.org/2000/svg" width="600" height="150" viewBox="0 0 600 150" role="img" aria-labelledby="title desc">
  <title id="title">North Atlas Studio email signature banner</title>
  <desc id="desc">North Atlas Studio logo, slogan, services, website, email, and phone number.</desc>
  <defs>
    <linearGradient id="bg" x1="0" y1="0" x2="1" y2="1">
      <stop offset="0" stop-color="#061833"/>
      <stop offset="0.62" stop-color="#0B1D3A"/>
      <stop offset="1" stop-color="#08224A"/>
    </linearGradient>
    <radialGradient id="glow" cx="75%" cy="25%" r="70%">
      <stop offset="0" stop-color="#2563EB" stop-opacity="0.28"/>
      <stop offset="1" stop-color="#2563EB" stop-opacity="0"/>
    </radialGradient>
  </defs>
  <rect width="600" height="150" rx="12" fill="url(#bg)"/>
  <rect width="600" height="150" rx="12" fill="url(#glow)"/>
  <g opacity="0.12" stroke="#FFFFFF" stroke-width="1">
    <path d="M418 0v150M458 0v150M498 0v150M538 0v150M578 0v150"/>
    <path d="M380 30h220M380 70h220M380 110h220"/>
  </g>
  <g transform="translate(28 26) scale(1.55)">
    <path d="M41.4 21.1 A19 19 0 1 1 22.6 21.1" fill="none" stroke="#FFFFFF" stroke-width="4.6" stroke-linecap="round"/>
    <g stroke="#FFFFFF" stroke-width="1.9" fill="none" stroke-linecap="round">
      <path d="M15.6 43.5 H48.4"/>
      <path d="M19.8 50 H44.2"/>
      <path d="M32 40.5 V55.4"/>
      <path d="M24.5 41.5 C23 46 23.5 50.5 26.5 54.2"/>
      <path d="M39.5 41.5 C41 46 40.5 50.5 37.5 54.2"/>
    </g>
    <path d="M32 19.5 c-7.6 0-12.6 5.4-12.6 11.8 0 8.4 12.6 17.2 12.6 17.2 s12.6-8.8 12.6-17.2 C44.6 24.9 39.6 19.5 32 19.5 z" fill="#0B1D3A"/>
    <path d="M32 22 c-6.2 0-10.2 4.4-10.2 9.6 0 6.9 10.2 14.1 10.2 14.1 s10.2-7.2 10.2-14.1 C42.2 26.4 38.2 22 32 22 z" fill="#FFFFFF"/>
    <circle cx="32" cy="31.6" r="3.4" fill="#0B1D3A"/>
    <path d="M32 2.6 L39.4 19.2 L32 15.2 L24.6 19.2 Z" fill="#2563EB"/>
  </g>
  <text x="142" y="48" fill="#FFFFFF" font-family="Sora, Avenir Next, Arial, sans-serif" font-size="26" font-weight="700">North Atlas Studio</text>
  <text x="142" y="76" fill="#93B8FF" font-family="Inter, Arial, sans-serif" font-size="15" font-weight="700">Websites that turn local searches into leads.</text>
  <text x="142" y="104" fill="#E2E8F0" font-family="Inter, Arial, sans-serif" font-size="13">Web Design · Local SEO · Tracking · AI Search Readiness</text>
  <text x="142" y="128" fill="#FFFFFF" font-family="Inter, Arial, sans-serif" font-size="12" font-weight="600">northatlasstudio@gmail.com  ·  617-356-7756  ·  northatlasstudio.com</text>
</svg>
